<svg width="32" height="32" viewBox="0 0 32 32" fill="none" xmlns="http://www.w3.org/2000/svg">
  <!-- Brain/Head shape -->
  <path d="M16 4C20 4 24 8 24 12C24 16 20 20 16 20C12 20 8 16 8 12C8 8 12 4 16 4Z" fill="#3B82F6"/>
  
  <!-- Neural network lines -->
  <path d="M12 8L20 8" stroke="#1E40AF" stroke-width="2" stroke-linecap="round"/>
  <path d="M10 12L22 12" stroke="#1E40AF" stroke-width="2" stroke-linecap="round"/>
  <path d="M12 16L20 16" stroke="#1E40AF" stroke-width="2" stroke-linecap="round"/>
  
  <!-- Data points -->
  <circle cx="12" cy="8" r="2" fill="#1E40AF"/>
  <circle cx="20" cy="8" r="2" fill="#1E40AF"/>
  <circle cx="10" cy="12" r="2" fill="#1E40AF"/>
  <circle cx="22" cy="12" r="2" fill="#1E40AF"/>
  <circle cx="12" cy="16" r="2" fill="#1E40AF"/>
  <circle cx="20" cy="16" r="2" fill="#1E40AF"/>
  
  <!-- Chart bars -->
  <rect x="6" y="24" width="2" height="6" fill="#10B981"/>
  <rect x="10" y="22" width="2" height="8" fill="#10B981"/>
  <rect x="14" y="20" width="2" height="10" fill="#10B981"/>
  <rect x="18" y="18" width="2" height="12" fill="#10B981"/>
  <rect x="22" y="16" width="2" height="14" fill="#10B981"/>
</svg>
